<?xml version="1.0" encoding="UTF-8" standalone="no"?>
<!-- Creator: CorelDRAW X5 -->

<svg
   xmlns:dc="http://purl.org/dc/elements/1.1/"
   xmlns:cc="http://creativecommons.org/ns#"
   xmlns:rdf="http://www.w3.org/1999/02/22-rdf-syntax-ns#"
   xmlns:svg="http://www.w3.org/2000/svg"
   xmlns="http://www.w3.org/2000/svg"
   xmlns:sodipodi="http://sodipodi.sourceforge.net/DTD/sodipodi-0.dtd"
   xmlns:inkscape="http://www.inkscape.org/namespaces/inkscape"
   style="fill-rule:evenodd;text-rendering:geometricPrecision;image-rendering:optimizeQuality;clip-rule:evenodd;shape-rendering:geometricPrecision"
   xml:space="preserve"
   viewBox="0 0 11530 8291"
   id="svg2"
   version="1.1"
   inkscape:version="0.91pre3 r13670"
   sodipodi:docname="Brain-color.svg"><sodipodi:namedview
   pagecolor="#ffffff"
   bordercolor="#666666"
   borderopacity="1"
   objecttolerance="10"
   gridtolerance="10"
   guidetolerance="10"
   inkscape:pageopacity="0"
   inkscape:pageshadow="2"
   inkscape:window-width="1364"
   inkscape:window-height="766"
   id="namedview13"
   showgrid="false"
   inkscape:zoom="0.0284646"
   inkscape:cx="5765"
   inkscape:cy="4145.5"
   inkscape:window-x="0"
   inkscape:window-y="0"
   inkscape:window-maximized="0"
   inkscape:current-layer="svg2" />
 <defs
   id="defs4">
  <style
   type="text/css"
   id="style6">
    .fil0 {fill:black}
  </style>
 
  
 </defs>
 <path
   style="fill:#0000ff"
   d="m 10724,4439 c -567,-31 -1209,338 -1388,1054 -104,416 -12,803 224,1101 201,254 297,516 199,883 -116,436 -439,685 -776,814 385,-116 753,-377 891,-864 113,-398 21,-718 -210,-990 -348,-409 -248,-1008 42,-1412 204,-339 582,-571 1018,-586 z"
   id="path3356" /><path
   style="fill:#0000ff"
   d="m 4251,6247 c 983,39 1558,442 2325,1196 298,293 616,634 970,379 -427,-54 -911,-614 -1301,-912 -646,-495 -1258,-705 -1995,-663 z"
   id="path3354" /><path
   style="fill:#ff0000"
   d="m 5329,3338 c 80,-358 -113,-765 -447,-927 -176,-86 -359,-87 -510,-20 142,-29 303,4 451,107 300,208 440,625 325,948 -411,270 -662,632 -662,1029 0,609 591,1135 1443,1376 -716,-270 -1188,-730 -1188,-1253 0,-831 1193,-1505 2664,-1505 104,0 207,3 308,10 -11,28 -24,54 -40,79 -99,157 -265,214 -431,168 234,104 480,24 591,-212 131,-279 23,-670 -241,-874 -134,-103 -281,-138 -412,-112 119,3 245,60 354,172 183,188 260,474 203,704 -238,-46 -492,-71 -755,-71 -633,0 -1211,144 -1651,380 z"
   id="path3352" /><path
   style="fill:#ff0000"
   d="m 8497,2019 c 920,223 1571,773 1571,1417 0,841 -1112,1523 -2485,1523 -737,0 -1398,-197 -1853,-509 429,194 969,310 1557,310 1395,0 2526,-654 2526,-1460 0,-553 -532,-1034 -1317,-1282 z"
   id="path3350" /><path
   style="fill:#0000ff"
   d="m 9859,6145 c 736,24 1323,-290 1561,-934 C 11856,4032 10955,2196 9409,1109 8749,645 8078,393 7492,348 c 515,96 1077,337 1633,727 1559,1096 2466,2947 2027,4135 -209,565 -685,878 -1294,934 z"
   id="path3348" /><path
   style="fill:#0000ff"
   d="M 1833,6135 C 836,5831 143,5182 20,4290 -205,2657 1566,829 3977,207 5006,-59 5984,-62 6786,149 6065,32 5235,71 4369,295 1939,923 153,2766 380,4411 c 108,783 652,1380 1454,1723 z"
   id="path3346" /><path
   style="fill:#ff0000"
   d="M 6847,1088 C 5982,953 5016,956 4174,1188 c -572,158 -1201,462 -1426,960 -27,60 -48,122 -62,185 -14,63 -21,127 -21,191 -2,533 456,1006 924,1326 65,44 132,87 200,128 -442,-331 -841,-788 -839,-1298 0,-67 8,-135 22,-201 15,-66 36,-131 65,-194 236,-523 896,-843 1497,-1008 841,-232 1798,-245 2671,-125 -120,-25 -239,-46 -358,-65 z"
   id="path3344" /><path
   style="fill:#ff0000"
   d="m 4110,4222 c -108,764 -753,1351 -1533,1351 -855,0 -1549,-706 -1549,-1577 0,-533 260,-1004 657,-1289 -292,275 -474,668 -474,1104 0,831 661,1504 1477,1504 676,0 1246,-462 1422,-1093 z"
   id="path9" />
<metadata
   id="metadata11"><rdf:RDF><cc:Work><dc:format>image/svg+xml</dc:format><dc:type
         rdf:resource="http://purl.org/dc/dcmitype/StillImage" /><cc:license
         rdf:resource="http://creativecommons.org/licenses/publicdomain/" /><dc:publisher><cc:Agent
           rdf:about="http://openclipart.org/"><dc:title>Openclipart</dc:title></cc:Agent></dc:publisher><dc:title></dc:title></cc:Work><cc:License
       rdf:about="http://creativecommons.org/licenses/publicdomain/"><cc:permits
         rdf:resource="http://creativecommons.org/ns#Reproduction" /><cc:permits
         rdf:resource="http://creativecommons.org/ns#Distribution" /><cc:permits
         rdf:resource="http://creativecommons.org/ns#DerivativeWorks" /></cc:License></rdf:RDF></metadata></svg>